<?xml version="1.0" encoding="UTF-8"?>
<svg version="1.1" xmlns="http://www.w3.org/2000/svg" width="100" height="100" viewBox="-20 -10 80 60">
    <path d="M0 0 C2.80283867 2.73447675 3.40583381 4.38825325 3.609375 8.27734375 C3.40600651 17.9203998 3.40600651 17.9203998 1.51953125 21.453125 C0.36167559 23.92951832 0.41240223 25.79824017 0.5625 28.5 C1.62791016 28.95439453 1.62791016 28.95439453 2.71484375 29.41796875 C3.63394531 29.83691406 4.55304687 30.25585938 5.5 30.6875 C6.41652344 31.09355469 7.33304688 31.49960937 8.27734375 31.91796875 C10.5625 33.5 10.5625 33.5 11.37890625 36.17578125 C11.43949219 36.94277344 11.50007813 37.70976563 11.5625 38.5 C8.26168209 36.88102741 5.03692567 35.14075691 1.8125 33.375 C0.82765625 32.83617187 -0.1571875 32.29734375 -1.171875 31.7421875 C-1.91953125 31.33226562 -2.6671875 30.92234375 -3.4375 30.5 C-3.76036996 22.42825112 -3.76036996 22.42825112 -2.4375 18.625 C-0.97361687 14.05036521 -0.71436032 9.25872563 -1.4375 4.5 C-4.90748729 2.18667514 -6.36259248 2.16042437 -10.4375 2.5 C-11.4275 3.16 -12.4175 3.82 -13.4375 4.5 C-13.87995932 7.48662705 -13.87995932 7.48662705 -13.75 10.875 C-13.74613281 12.01710938 -13.74226562 13.15921875 -13.73828125 14.3359375 C-13.4487678 17.38146861 -12.89395069 18.88938085 -11.4375 21.5 C-10.48260526 24.76960795 -10.23784787 27.27559564 -11.4375 30.5 C-14.38470832 32.80726796 -17.36279343 34.43146096 -20.71484375 36.08984375 C-23.53988678 37.21432 -23.53988678 37.21432 -24.4375 39.5 C-14.8675 39.5 -5.2975 39.5 4.5625 39.5 C4.8925 40.16 5.2225 40.82 5.5625 41.5 C-5.6575 41.5 -16.8775 41.5 -28.4375 41.5 C-26.4375 34.5 -26.4375 34.5 -23.625 32.1875 C-20.92625687 30.75875364 -18.31430537 29.51534307 -15.4375 28.5 C-15.581875 27.200625 -15.72625 25.90125 -15.875 24.5625 C-15.95621094 23.83160156 -16.03742187 23.10070312 -16.12109375 22.34765625 C-16.25636614 20.48859771 -16.25636614 20.48859771 -17.4375 19.5 C-17.59135859 16.88144517 -17.66916284 14.30742237 -17.6875 11.6875 C-17.708125 10.96240234 -17.72875 10.23730469 -17.75 9.49023438 C-17.77364114 6.26026381 -17.66375412 3.91723922 -16.109375 1.05078125 C-11.60297052 -3.12922477 -5.17648909 -2.2588316 0 0 Z " fill="#000000" transform="translate(29.4375,1.5)"/>
    <path d="M0 0 C0.66 0.33 1.32 0.66 2 1 C1.41827275 4.9520518 -0.55157741 7.22095053 -3.0625 10.25 C-3.79597656 11.14203125 -4.52945313 12.0340625 -5.28515625 12.953125 C-5.85105469 13.62859375 -6.41695312 14.3040625 -7 15 C-11.28359673 13.1144852 -13.15103592 10.64034299 -16 7 C-12 7 -12 7 -7 9 C-4.69 6.03 -2.38 3.06 0 0 Z " fill="#000000" transform="translate(48,31)"/>
</svg>